<svg width="43" height="43" viewBox="0 0 43 43" fill="none" xmlns="http://www.w3.org/2000/svg">
<path d="M21.3498 41.3498C10.3041 41.3498 1.34978 32.3955 1.34978 21.3498C1.34978 10.304 10.3041 1.34976 21.3498 1.34976C32.3955 1.34976 41.3498 10.304 41.3498 21.3498C41.3498 32.3955 32.3955 41.3498 21.3498 41.3498Z" stroke="#FBF7F0" stroke-width="2.69955" stroke-miterlimit="10"/>
<path d="M18.3013 33.4074H23.1673V21.227H26.562L26.9193 17.1528H23.1568C23.1568 17.1528 23.1568 15.6303 23.1568 14.8322C23.1568 13.8662 23.346 13.4882 24.2814 13.4882C25.0275 13.4882 26.9193 13.4882 26.9193 13.4882V9.25656C26.9193 9.25656 24.1447 9.25656 23.5457 9.25656C19.9198 9.25656 18.2908 10.8526 18.2908 13.8977C18.2908 16.5543 18.2908 17.1528 18.2908 17.1528H15.758V21.2795H18.2908V33.4074H18.3013Z" fill="#FBF7F0"/>
</svg>
