<svg width="43" height="43" viewBox="0 0 43 43" fill="none" xmlns="http://www.w3.org/2000/svg">
<path d="M21.2833 41.2833C10.2375 41.2833 1.28326 32.329 1.28326 21.2833C1.28326 10.2375 10.2375 1.28326 21.2833 1.28326C32.329 1.28326 41.2833 10.2375 41.2833 21.2833C41.2833 32.329 32.329 41.2833 21.2833 41.2833Z" stroke="#FBF7F0" stroke-width="2.56652" stroke-miterlimit="10"/>
<path d="M21.2832 12.2875C24.2154 12.2875 24.5622 12.298 25.7183 12.3505C26.7903 12.403 27.3683 12.5816 27.7571 12.7286C28.2721 12.9281 28.6295 13.1696 29.0183 13.5476C29.4072 13.9361 29.6384 14.2931 29.8381 14.8076C29.9852 15.1961 30.1639 15.7737 30.2164 16.8447C30.269 17.9997 30.2795 18.3462 30.2795 21.2758C30.2795 24.2054 30.269 24.5519 30.2164 25.707C30.1639 26.778 29.9852 27.3555 29.8381 27.7441C29.6384 28.2586 29.3967 28.6156 29.0183 29.0041C28.64 29.3821 28.2721 29.6236 27.7571 29.8231C27.3683 29.9701 26.7903 30.1486 25.7183 30.2011C24.5622 30.2536 24.2154 30.2641 21.2832 30.2641C18.351 30.2641 18.0041 30.2536 16.8481 30.2011C15.7761 30.1486 15.198 29.9701 14.8092 29.8231C14.2942 29.6236 13.9369 29.3821 13.548 29.0041C13.1592 28.6156 12.9279 28.2586 12.7283 27.7441C12.5811 27.3555 12.4025 26.778 12.3499 25.707C12.2974 24.5519 12.2868 24.2054 12.2868 21.2758C12.2868 18.3462 12.2974 17.9997 12.3499 16.8447C12.4025 15.7737 12.5811 15.1961 12.7283 14.8076C12.9279 14.2931 13.1697 13.9361 13.548 13.5476C13.9369 13.1591 14.2942 12.9281 14.8092 12.7286C15.198 12.5816 15.7761 12.403 16.8481 12.3505C18.0146 12.298 18.3615 12.2875 21.2832 12.2875ZM21.2832 10.3135C18.3089 10.3135 17.9306 10.324 16.764 10.3765C15.5974 10.429 14.7987 10.618 14.105 10.891C13.3799 11.1745 12.7703 11.542 12.1607 12.151C11.5512 12.7601 11.1728 13.3691 10.8996 14.0936C10.6263 14.7866 10.4476 15.5846 10.3846 16.7502C10.332 17.9157 10.3215 18.2937 10.3215 21.2653C10.3215 24.2369 10.332 24.6149 10.3846 25.7805C10.4371 26.946 10.6263 27.744 10.8996 28.4371C11.1833 29.1616 11.5512 29.7706 12.1607 30.3796C12.7703 30.9887 13.3799 31.3667 14.105 31.6397C14.7987 31.9127 15.5974 32.0912 16.764 32.1542C17.9306 32.2067 18.3089 32.2172 21.2832 32.2172C24.2574 32.2172 24.6358 32.2067 25.8023 32.1542C26.9689 32.1017 27.7677 31.9127 28.4613 31.6397C29.1865 31.3562 29.796 30.9887 30.4056 30.3796C31.0152 29.7706 31.3935 29.1616 31.6668 28.4371C31.94 27.744 32.1187 26.946 32.1817 25.7805C32.2343 24.6149 32.2448 24.2369 32.2448 21.2653C32.2448 18.2937 32.2343 17.9157 32.1817 16.7502C32.1292 15.5846 31.94 14.7866 31.6668 14.0936C31.383 13.3691 31.0152 12.7601 30.4056 12.151C29.796 11.542 29.1865 11.164 28.4613 10.891C27.7677 10.618 26.9689 10.4395 25.8023 10.3765C24.6358 10.324 24.2679 10.3135 21.2832 10.3135Z" fill="#FBF7F0"/>
<path d="M21.2823 15.6368C18.1714 15.6368 15.6491 18.1569 15.6491 21.265C15.6491 24.3731 18.1714 26.8932 21.2823 26.8932C24.3932 26.8932 26.9155 24.3731 26.9155 21.265C26.9155 18.1569 24.3932 15.6368 21.2823 15.6368ZM21.2823 24.9191C19.2644 24.9191 17.6249 23.2811 17.6249 21.265C17.6249 19.249 19.2644 17.6109 21.2823 17.6109C23.3001 17.6109 24.9397 19.249 24.9397 21.265C24.9397 23.2811 23.3001 24.9191 21.2823 24.9191Z" fill="#FBF7F0"/>
<path d="M28.4612 15.4168C28.4612 16.1413 27.8727 16.7293 27.1475 16.7293C26.4223 16.7293 25.8338 16.1413 25.8338 15.4168C25.8338 14.6923 26.4223 14.1042 27.1475 14.1042C27.8727 14.1042 28.4612 14.6923 28.4612 15.4168Z" fill="#FBF7F0"/>
</svg>
