<svg width="43" height="43" viewBox="0 0 43 43" fill="none" xmlns="http://www.w3.org/2000/svg">
<path d="M21.3498 41.3498C10.3041 41.3498 1.34978 32.3955 1.34978 21.3498C1.34978 10.304 10.3041 1.34976 21.3498 1.34976C32.3955 1.34976 41.3498 10.304 41.3498 21.3498C41.3498 32.3955 32.3955 41.3498 21.3498 41.3498Z" stroke="#FBF7F0" stroke-width="2.69955" stroke-miterlimit="10"/>
<path d="M16.42 16.869H12.2791V30.2255H16.42V16.869Z" fill="#FBF7F0"/>
<path d="M14.3291 15.1262C15.6849 15.1262 16.7779 14.0237 16.7779 12.6586C16.7779 11.2936 15.6849 10.191 14.3291 10.191C12.9733 10.191 11.8803 11.2936 11.8803 12.6586C11.8803 14.0237 12.9733 15.1262 14.3291 15.1262Z" fill="#FBF7F0"/>
<path d="M23.031 23.2218C23.031 21.3422 23.8928 20.2292 25.5534 20.2292C27.0773 20.2292 27.8025 21.3002 27.8025 23.2218C27.8025 25.1434 27.8025 30.236 27.8025 30.236H31.9223C31.9223 30.236 31.9223 25.3534 31.9223 21.7727C31.9223 18.1921 29.8939 16.4596 27.0563 16.4596C24.2186 16.4596 23.031 18.6646 23.031 18.6646V16.8691H19.0584V30.2255H23.031C23.031 30.236 23.031 25.2799 23.031 23.2218Z" fill="#FBF7F0"/>
</svg>
