<svg width="43" height="43" viewBox="0 0 43 43" fill="none" xmlns="http://www.w3.org/2000/svg">
<circle cx="21.3018" cy="21.3018" r="20" stroke="#FBF7F0" stroke-width="2.60357"/>
<path d="M26.9846 13.667C26.1693 12.7281 25.6751 11.5174 25.6751 10.1832H21.8578V25.5021C21.796 27.2193 20.3876 28.5906 18.6581 28.5906C16.9038 28.5906 15.4461 27.1575 15.4461 25.3785C15.4461 23.2537 17.4968 21.66 19.6093 22.3148V18.4109C15.3472 17.8427 11.6164 21.1535 11.6164 25.3785C11.6164 29.4924 15.026 32.4203 18.6457 32.4203C22.5249 32.4203 25.6751 29.27 25.6751 25.3785V17.6079C27.1699 18.6827 29.0107 19.3128 30.9873 19.3128V15.4954C30.9873 15.4954 28.6648 15.6066 26.9846 13.667Z" fill="#FBF7F0"/>
</svg>
